# xmcd
#
# Track frame offsets:
# 150
# 15457
# 28721
# 43897
# 56080
# 71760
# 83823
# 95975
# 109312
# 123905
# 138329
# 151062
# 164144
# 177653
# 189166
# 203195
#
# Disc length: 2888 seconds
#
#
# Revision: 1
# Processed by: cddbd v1.5.1PL2 Copyright (c) Steve Scherf et al.
# Submitted via: FreeRIP 2.944 
#
DISCID=e60b4610
DTITLE=Muddy Waters - Discover Blues - Muddy Waters - Disk 4
DYEAR=2004
DGENRE=Blues
TTITLE0=They Call Me Muddy Waters
TTITLE1=All Night Long
TTITLE2=Honey Bee
TTITLE3=Howlin' Wolf
TTITLE4=Lonesome Day
TTITLE5=Long Distance Call
TTITLE6=My Fault
TTITLE7=She Moves Me
TTITLE8=Still A Fool
TTITLE9=Too Young To Know
TTITLE10=Appealing Blues
TTITLE11=Louisiana Blues
TTITLE12=Rollin' And Tumblin' Part I
TTITLE13=Rollin' And Tumblin' Part II
TTITLE14=Rollin' Stone
TTITLE15=Walking Blues
EXTD=1950 - 1951
EXTT0=
EXTT1=
EXTT2=
EXTT3=
EXTT4=
EXTT5=
EXTT6=
EXTT7=
EXTT8=
EXTT9=
EXTT10=
EXTT11=
EXTT12=
EXTT13=
EXTT14=
EXTT15=
PLAYORDER=
